<svg id="_0144_super_man" xmlns="http://www.w3.org/2000/svg" xmlns:xlink="http://www.w3.org/1999/xlink" viewBox="0 0 500 500" data-imageid="superman-66" imageName="Superman" class="illustrations_image" style="width: 188px;"><defs><style>.cls-1_superman-66{fill:url(#linear-gradient);}.cls-1_superman-66,.cls-2_superman-66,.cls-3_superman-66,.cls-4_superman-66,.cls-5_superman-66,.cls-6_superman-66,.cls-7_superman-66,.cls-8_superman-66,.cls-9_superman-66,.cls-10_superman-66,.cls-11_superman-66,.cls-12_superman-66,.cls-13_superman-66,.cls-14_superman-66,.cls-15_superman-66,.cls-16_superman-66,.cls-17_superman-66{stroke-width:0px;}.cls-2_superman-66{isolation:isolate;opacity:.18;}.cls-2_superman-66,.cls-17_superman-66{fill:#68e1fd;}.cls-3_superman-66{fill:url(#linear-gradient-11-superman-66);}.cls-4_superman-66{fill:url(#linear-gradient-12-superman-66);}.cls-5_superman-66{fill:url(#linear-gradient-13-superman-66);}.cls-6_superman-66{fill:url(#linear-gradient-10-superman-66);}.cls-7_superman-66{fill:url(#linear-gradient-4-superman-66);}.cls-8_superman-66{fill:url(#linear-gradient-2-superman-66);}.cls-9_superman-66{fill:url(#linear-gradient-3-superman-66);}.cls-10_superman-66{fill:url(#linear-gradient-8-superman-66);}.cls-11_superman-66{fill:url(#linear-gradient-9-superman-66);}.cls-12_superman-66{fill:url(#linear-gradient-7-superman-66);}.cls-13_superman-66{fill:url(#linear-gradient-5-superman-66);}.cls-14_superman-66{fill:url(#linear-gradient-6-superman-66);}.cls-15_superman-66{fill:#404040;}.cls-16_superman-66{fill:#f6ad82;}</style><linearGradient id="linear-gradient-superman-66" x1="167.85" y1="3765.21" x2="406.53" y2="3765.21" gradientTransform="translate(-75.16 3963.5) scale(1 -1)" gradientUnits="userSpaceOnUse"><stop offset="0" stop-color="#000" stop-opacity="0"/><stop offset=".99" stop-color="#000"/></linearGradient><linearGradient id="linear-gradient-2-superman-66" x1="215.49" y1="3721.81" x2="386.67" y2="3790.89" xlink:href="#linear-gradient-superman-66"/><linearGradient id="linear-gradient-3-superman-66" x1="349.9" y1="3860.75" x2="349.19" y2="3923.28" xlink:href="#linear-gradient-superman-66"/><linearGradient id="linear-gradient-4-superman-66" x1="307.74" y1="3864.15" x2="302.84" y2="3862.72" xlink:href="#linear-gradient-superman-66"/><linearGradient id="linear-gradient-5-superman-66" x1="365.86" y1="3867.45" x2="384.07" y2="3867.45" xlink:href="#linear-gradient-superman-66"/><linearGradient id="linear-gradient-6-superman-66" x1="279.14" y1="3781.28" x2="321.48" y2="3770.44" xlink:href="#linear-gradient-superman-66"/><linearGradient id="linear-gradient-7-superman-66" x1="309.65" y1="3759.58" x2="372.55" y2="3743.47" xlink:href="#linear-gradient-superman-66"/><linearGradient id="linear-gradient-8-superman-66" x1="353.86" y1="3788.15" x2="391.13" y2="3788.15" xlink:href="#linear-gradient-superman-66"/><linearGradient id="linear-gradient-9-superman-66" x1="330.25" y1="3742.35" x2="347.97" y2="3556.35" xlink:href="#linear-gradient-superman-66"/><linearGradient id="linear-gradient-10-superman-66" x1="101.73" y1="3681.2" x2="205.89" y2="3707.76" gradientTransform="translate(-155.65 4102.87) rotate(4) scale(1 -1)" xlink:href="#linear-gradient-superman-66"/><linearGradient id="linear-gradient-11-superman-66" x1="527.61" y1="3464.32" x2="444.14" y2="3458.74" gradientTransform="translate(-26.9 3890.47) rotate(-2.29) scale(1 -1)" xlink:href="#linear-gradient-superman-66"/><linearGradient id="linear-gradient-12-superman-66" x1="286.97" y1="3884.14" x2="307.79" y2="3742.83" gradientTransform="translate(-31 3965.26) scale(1 -1)" xlink:href="#linear-gradient-superman-66"/><linearGradient id="linear-gradient-13-superman-66" x1="333.51" y1="3869.86" x2="274.41" y2="3864.65" xlink:href="#linear-gradient-superman-66"/></defs><path id="background_superman-66" class="cls-2_superman-66 targetColor" d="M294.44,53.11l-101.99-24.41c-11.03-2.65-22.26-5.31-33.58-4.57-19.91,1.5-37.64,13.16-46.92,30.85-3.38,6.64-5.81,14.36-12,18.49-4.04,2.68-9.03,3.37-13.75,4.44-31.91,7.22-56.91,36.08-62.4,68.38-5.5,32.3,7.34,66.33,30.68,89.25,26.16,25.69,65.17,39.71,81.11,72.73,10.99,22.79,8.61,50.65,21.4,72.42,13.07,22.27,39.26,33.43,64.66,38.19,25.4,4.76,51.65,4.63,76.55,11.52,12.92,3.57,25.33,9,38.51,11.4,13.18,2.39,27.86,1.35,38.4-6.89,15.65-12.22,17.07-35.34,14.01-54.97-5.33-34.06-19.87-65.85-30.86-98.57-10.99-32.72-18.49-68.24-9.32-101.48,2.94-10.69,7.6-21.06,8.29-32.13,1.27-19.43-11.06-40.12-17.25-58.07-7.94-23.12-22.27-31-45.52-36.57Z" style="fill: rgb(104, 225, 253);"/><g id="character_superman-66"><path class="cls-17_superman-66 targetColor" d="M332.68,135.6c-.29,11.81-1.27,23.64-4.33,34.99-.42,1.52-.86,3.03-1.34,4.51-12.17,38.17-45.02,65.67-62.82,101.64-3.97,8.02-7.16,16.4-9.52,25.04-.06.13-.09.27-.11.42-3.11,11.33-4.81,23-5.07,34.75-.42.1-.84.17-1.27.22-8.86,1.39-17.58-4.12-24.39-10.36-7.13-6.55-13.6-14.39-22.38-18.06-12.66-5.28-27.45-.92-40.13-6.09-15.55-6.33-23.17-25.33-23.68-42.81-.25-8.66.6-18.12-4.23-25.09-3.58-5.17-9.48-7.79-14.65-11.16-15.51-10.22-24.97-29.13-26.02-48.23-.39-7.8.43-15.61,2.43-23.15,2.89-10.94,7.88-21.21,14.68-30.25,4.31-5.72,9.27-10.95,12.66-17.32.68-1.22,1.25-2.49,1.72-3.8,2.14-5.53,2.76-11.76.42-17.11-1.27-2.79-3.27-5.45-3.42-8.48-.01-.15-.01-.3,0-.46,0-4.74,4.57-7.88,8.59-10.02,15.49-8.18,34.19-14.77,49.59-6.47,9.62,5.19,16.3,15.5,26.35,19.79,3.11,1.23,6.36,2.08,9.67,2.53,2.74.46,5.48.85,8.19,1.47,10.07,2.27,15.51,7.99,23.14,13.5.65.47,1.27.95,2,1.41,8.13,5.5,23.43,2.46,31.95-.73,8.18-3.03,15.69-8.98,24.36-9.17,10.13-.25,19.1,7.75,23.34,17.35,4.24,9.6,4.55,20.58,4.27,31.16Z" style="fill: rgb(104, 225, 253);"/><path class="cls-1_superman-66" d="M331.3,140.36c-.3,11.71-1.27,23.47-4.29,34.74,0,.09,0,.16-.06.25-10.9,40.52-45.66,68.79-64.18,106.14-3.24,6.53-5.95,13.31-8.13,20.26-.05.13-.09.27-.11.41-3.53,11.35-5.62,23.09-6.24,34.96-8.86,1.39-17.55-4.12-24.39-10.36-7.1-6.56-13.59-14.37-22.38-18.06-12.66-5.28-27.44-.91-40.12-6.09-15.55-6.33-23.19-25.33-23.68-42.83-.24-8.64.61-18.11-4.24-25.07-3.57-5.18-9.48-7.78-14.63-11.17-15.51-10.22-24.98-29.13-26.05-48.22-.41-7.78.39-15.59,2.38-23.12,2.98-9.17,7.45-17.78,13.25-25.49,4.29-5.71,9.24-10.95,12.66-17.31,1.44-2.68,2.48-5.56,3.09-8.55.95-4.12.61-8.43-.98-12.35-1.27-2.95-3.47-5.7-3.44-8.94.02-1.55.52-3.05,1.42-4.31,1.9-2.46,4.36-4.42,7.17-5.74,15.47-8.16,34.19-14.74,49.59-6.45,9.64,5.19,16.29,15.5,26.35,19.78,5.65,2.41,11.9,2.63,17.86,4,10.93,2.53,16.46,9,25.14,14.9,8.13,5.5,23.43,2.53,31.95-.73,8.18-3.05,15.69-8.98,24.36-9.18,10.13-.23,19.1,7.78,23.35,17.37,4.25,9.6,4.62,20.55,4.36,31.14Z"/><path class="cls-8_superman-66" d="M165.69,122.1c-11.21-5.07-23.77-5.5-35.98-5.85-2.95-.08-6.03-.13-8.66,1.27-2.07,1.29-3.87,2.98-5.27,4.98-12.79,15.88-25.43,34.3-24.78,55.09-.03,1.99.35,3.96,1.11,5.79,1.27,2.53,3.55,4.15,5.84,5.62,26.87,17.21,59.14,23.89,90.63,18.75,16.91-2.84,33.42-9.1,50.54-8.86-.48,12.26-12.52,20.08-23.45,24.48-22.56,9.08-46.8,13.24-71.1,12.21l-4.91,52.38,97.94-34.89c-10.89,23.71-15.06,49.95-12.06,75.87.23,1.91.61,4.05,2.11,5.15s3.63.73,5.48.29c12.37-3.01,25.54-6.47,34.19-16.27,5.07-5.74,8-13.14,9.97-20.64,4.62-17.73,4.18-36.45,8.36-54.25,3.96-16.88,11.95-32.43,16.46-49.17,8.57-32.08-6.51-70.91-43.57-66.05-15.88,2.06-30.23,12.89-46.16,14.54-18.58,1.92-30.86-13.26-46.69-20.41Z"/><path class="cls-17_superman-66 targetColor" d="M340.69,209.65c-1.63,12.13-5.38,23.83-9.47,35.32-.7,1.99-1.52,4.12-3.27,5.2-2.53,1.61-6,.19-7.76-2.28s-2.23-5.7-2.53-8.76c-1.87-18-.65-36.19,3.62-53.78.51-1.5.65-3.1.39-4.66-.57-1.52-1.47-2.9-2.63-4.03-3.14-3.85-5.07-8.55-5.55-13.5-7.22,7.14-14.71,14.78-17.55,24.74-3.41,12.12.76,24.92,3.27,37.29,7.83,38.47-.63,79.31,8.97,117.34,2.62,10.4,5.74,43.38,4.58,43.87-5.61,2.28-8.95,5.07-14.93,5.71-1.27.28-2.6.14-3.8-.38-1.6-.9-3.12-7.45-3.56-9.26-2.14-8.86-21.53-62.39-15.37-50.93,10,18.77,10.41,56.05,10.41,58.58,0,3.86-24.12,4.2-27.62,1.05-3.5-3.15-6.77-45.59-8.13-50.58s-2.25-11.13-4.76-15.65c-11.78-21.26-18.13-46.6-15.63-71.04.66-6.41,1.32-12.81,1.99-19.21,1-9.79,1.99-19.94-1-29.29-1.27-3.87-3.12-13.27-3.12-13.63-7.03,12.44-12,25.94-14.7,39.97-.08,1.24-.58,2.41-1.41,3.33-.28.27-.61.46-.98.58-.75.23-1.53.33-2.32.32l-10.42.34c-3.32-26.09,3.42-52.34,11.11-77.36,2.25-6.61,3.98-13.38,5.19-20.26.94-6.33.95-12.85,2.96-18.87,4.25-12.66,14.26-17.5,26.06-17.97,14.85-.63,29.65-2.11,44.32-4.44,6.09-.96,12.23-2.08,18.32-1.27,12.22,1.58,22.73,10.89,28.26,22.39,6.75,14.02,4.19,27.48,5.58,42.23,1.57,16.32,3.69,32.44,1.46,48.88Z" style="fill: rgb(104, 225, 253);"/><path class="cls-16_superman-66" d="M197.61,255.35c-.48,2.53-1.27,5.07-.65,7.6.77,3.51,3.8,5.86,6.74,7.78,1.22.9,2.6,1.56,4.06,1.94,2.95.57,5.96-1.27,7.84-3.66,1.75-2.6,3.04-5.49,3.8-8.54.48-1.21.68-2.5.6-3.8-.39-2.79-3.2-4.38-4.74-6.7-2.7-4.1-1.08-9.75-2.23-14.59-.11-.68-.42-1.3-.89-1.8-.65-.46-1.42-.69-2.22-.66-4.44-.27-10.66-1.27-11.69,4.43-1.03,5.7.49,12.04-.63,17.99Z"/><path class="cls-16_superman-66" d="M309.17,255.75c-1.71,1.42-3.69,2.47-5.36,3.95-1.8,1.41-2.92,3.53-3.06,5.81.22,1.69.64,3.34,1.27,4.93.79,2.96.51,6.33,2.32,8.8,2.33,3.1,6.91,2.94,10.46,1.6,5.31-2.03,10.13-6.56,10.92-12.41.34-2.47,0-5,.28-7.47.39-2.98,1.82-5.7,2.62-8.59,1.54-5.64-2.7-13.85-9.28-10.89-2.41,1.08-3.17,4.33-4.29,6.53-1.4,2.95-3.4,5.59-5.86,7.74Z"/><path class="cls-16_superman-66" d="M289.51,86.63c1.89,1.7,4.39,2.39,6.72,3.32,3.15,1.23,6.09,2.94,8.71,5.07.39.25.67.63.8,1.08.16.92-.91,1.51-1.77,1.76-8.8,2.43-17.74,4.28-26.78,5.55-12.66,2-25.9,3.8-38.07-.47-.56-.2-1.27-.61-1.1-1.27.08-.25.24-.46.44-.62,2.12-1.69,4.46-3.07,6.96-4.12,3.22-1.58,8.86-2.38,11.62-4.76,7.41-6.47,2.72-19,3.24-19.83,1.49-2.53,4.58-3.39,7.4-3.8,3.43-.52,6.92-.33,10.27.56,2.91.85,7.6,2.98,7.97,6.48.28,4.15.32,8.17,3.58,11.06Z"/><path class="cls-9_superman-66" d="M264.98,80.35c1.68,3.34,3.71,6.77,6.96,8.41,2.9,1.44,6.33,1.27,9.43.6,1.51-.13,2.91-.82,3.91-1.95.69-1.24.98-2.66.84-4.08v-11.5c-4.65,1.09-9.4,2.18-14.14,1.77-1.9-.16-7.41-1.9-8.86-.19-1.46,1.71,1.06,5.41,1.86,6.94Z"/><path class="cls-16_superman-66" d="M254.45,61.03c.44.86,1.14,1.58,1.52,2.53.38.95.41,1.77.76,2.61s1.2,1.56,2.03,1.27c.02,3.31,1.09,6.52,3.06,9.18,1.94,2.58,4.86,4.25,8.07,4.63,2.99.28,5.93-.73,8.78-1.73l6.14-2.15c.61-.16,1.18-.46,1.66-.87.63-.8.99-1.78,1.03-2.8l1.05-6.67c.02-.31.12-.6.29-.86.3-.28.67-.48,1.08-.57,1.58-.61,2.37-2.46,2.79-4.17.41-1.16.34-2.43-.2-3.53-.67-1.01-2.44-1.13-2.82,0,.21-4.36-.53-8.71-2.17-12.75-1.62-3.99-4.91-7.07-8.99-8.43-2.54-.56-5.17-.59-7.72-.1-1.79.19-3.53.65-5.18,1.37-1.63.79-4.28-1.27-5.07.47-.96,1.73-1.81,3.52-2.53,5.36-.3,2.15-.27,6.55-.58,8.71-.23,1.58,2.53,3.91,1.67,5.19-.86,1.28-7.03-1.27-4.65,3.33Z"/><path class="cls-15_superman-66" d="M256.22,55.75c-.53-3.72-.79-7.47-.76-11.23-.11-2.03.24-4.06,1.03-5.94,1.02-1.7,2.38-3.16,4.01-4.28l3.33-2.65c2.3-2.04,4.91-3.69,7.74-4.9,2.86-1.19,6.13-.87,8.71.84,2.47,1.85,3.69,5.23,6.33,6.77.8.46,1.71.73,2.53,1.27,1.49,1.01,2.56,2.53,3.01,4.28.46,1.75.67,3.56.62,5.37,0,2.61-.1,5.2-.3,7.79-.23,2.53-.94,5.48-3.22,6.33l-.33-4.2c-.11-2.85-.53-5.67-1.27-8.42-.73-2.73-2.38-5.12-4.66-6.79-2.06-1.45-4.76-1.63-7-.47-.33.16-.6.43-.76.76-.09.35-.11.71-.08,1.06.04,1.68-.91,3.24-2.42,3.98-1.51.65-3.27.3-4.42-.89-.58-.62-.77-1.95,0-2.09.5,1.19,1.86,1.75,3.05,1.25.04-.01.07-.03.1-.05,1.15-.7,1.68-2.1,1.27-3.38-.45-1.24-1.61-2.07-2.93-2.09-1.13.1-2.2.5-3.13,1.15l-3.87,2.25c-.7.36-1.34.83-1.9,1.39-1.27,1.46-1.27,3.67-1.27,5.67l.1,5.43c0,1.19.56,3.8,0,4.84-1.34,2.56-3.36-1.81-3.53-3.06Z"/><path class="cls-17_superman-66 targetColor" d="M247.2,96.31c.53,1.9,1.42,3.67,2.61,5.24,1.05,1.37,2.39,2.7,2.53,4.46.04.23,0,.46-.1.67-.23.28-.58.43-.94.39-.98,0-1.92-.34-2.66-.99.24.73-.68,1.27-1.42,1.27-3.42.16-6.21-2.87-9.52-3.8-1.02-.17-2.02-.43-3-.77-1.14-.63-2.13-1.49-2.91-2.53l-2.63-3.08c-.25-.24-.43-.54-.52-.87-.19-.95.86-1.65,1.76-1.86,2.03-.51-3.8-6.43-.91-6.69,1.98-.18,13.4,4.84,15.08,5.94.84.54,1.49,1.33,2.29,1.94.74.68,1.75.97,2.74.8" style="fill: rgb(104, 225, 253);"/><path class="cls-7_superman-66" d="M227.46,97.82c-.58,2.71,0,5.74-1.27,8.16.47.13.91-.23,1.27-.56,1.82-1.59,3.99-2.74,6.33-3.36-1.13-.53-2.07-1.37-2.72-2.43-1.07-1.15-1.87-2.52-2.34-4.01-.81.33-1.14,1.39-1.27,2.2Z"/><path class="cls-17_superman-66 targetColor" d="M306.62,96.49c.14.47-1.19,1.17-1.39,1.61-.39.91-1.57.98-2.53,1.06-3.65.33-6.72,2.86-9.61,5.23-.81.66-1.9,1.35-2.8.82-.48-.32-.8-.82-.87-1.39-.19-1.77.23-3.56,1.18-5.07,1.27-2.53,4.08-9.13,4.61-9.24,1.65-.31,3.34-.25,4.96.18,1.35.61.71.72.87,1.92s1.19,1.46,2.15,2.15c.96.7,3.09,1.46,3.43,2.72Z" style="fill: rgb(104, 225, 253);"/><path class="cls-13_superman-66" d="M294.96,92.04c-1.42,2.85-2.74,5.75-3.98,8.7-.25.61-.48,1.39,0,1.89s1.33.25,1.96-.09c2.05-1.09,4.06-2.26,6.03-3.52.54-.29.98-.73,1.27-1.27.52-1.15-.38-2.53,0-3.8.34-.88,1.07-1.55,1.98-1.82,2.19-.74,4.54-.87,6.8-.39-1.66-1.7-3.96-2.61-6.33-2.53-1.68.09-3.31.6-4.99.62-1.53.14-2.06.87-2.74,2.22Z"/><path class="cls-14_superman-66" d="M227.2,191.78c-6.89,12.14-11.71,25.33-14.27,39.05-.08,1.23-.57,2.41-1.39,3.33-.28.26-.62.46-.99.58-1.09-.15-2.08-.73-2.75-1.61-1.37-1.9-1-4.57-.57-6.9,2.62-13.65,5.57-27.21,8.86-40.69.45-2.26,1.18-4.45,2.17-6.53.47-.82.89-1.67,1.27-2.53.47-1.72.59-3.52.34-5.28-.6-11.74.56-23.5,3.46-34.89.43,6.24.85,12.51,1.87,18.65,1.06,6.52,2.77,12.9,3.47,19.46.7,6.56-1.47,17.7-1.47,17.35Z"/><path class="cls-12_superman-66" d="M233.01,209.72s15.26-.91,27.01-1.84c11.75-.92,22.6-.62,27.86-.92,2.76-.13,5.51-.44,8.23-.92l2.34,9.85s-12.33,1.53-15.85,1.53-45.8,3.08-49.92-.62l.33-7.08Z"/><path class="cls-10_superman-66" d="M305.58,143.4c-3.2,5.33-6.46,10.73-10.83,15.04-4.37,4.32-10.05,7.53-16.06,7.53,2.96.53,4.05,4.51,3.6,7.6-.46,3.09-1.81,6.19-1.27,9.28.53,1.77,1.16,3.51,1.9,5.2,1.47,4.62-.14,9.66.15,14.51,0,.9.26,1.79.77,2.53.8.76,1.85,1.21,2.95,1.27l4.89.77c.95.25,1.95.19,2.86-.16.56-.36,1.05-.83,1.42-1.39l11.71-15.06c2.4-2.82,4.46-5.91,6.14-9.21,2.62-5.81,3.13-13.03-.14-18.59-3.62-6.17-5.75-12.52-8.1-19.34Z"/><path class="cls-11_superman-66" d="M282.21,359.95s-17.73-48.55-20.54-65.85c-2.81-17.3-3.62-34.61-3.62-34.61,0,0-7.24-11.4-8.05-17.31s-5.23,26.18-5.23,26.18c0,0,22.15,59.95,22.15,70.5s8.86,53.19,8.86,53.19c0,0,8.51.82,9.69-1.91s-3.25-30.18-3.25-30.18Z"/><path class="cls-17_superman-66 targetColor" d="M285.03,361.45l-24.93-5.64s-5.52,7.51-8.86,4.08l7.46,41.36,3.89,39.35-7.12,33.25s-2.77,9.86,6.42,7.02c9.19-2.85,17.18-18.24,19.54-22.21l6.13-8.42-4.01-21.67,1.49-67.12Z" style="fill: rgb(104, 225, 253);"/><path class="cls-6_superman-66" d="M285.03,361.45l-24.93-5.64s-5.52,7.51-8.86,4.08l7.46,41.36,3.89,39.35-7.12,33.25s-2.77,9.86,6.42,7.02c9.19-2.85,17.18-18.24,19.54-22.21l6.13-8.42-4.01-21.67,1.49-67.12Z"/><path class="cls-17_superman-66 targetColor" d="M278.8,361.88l22.55-12.49s7.24,5.67,9.52,1.44l3.47,41.97,6.33,38.99,15.47,29.99s5.2,8.73-4.37,8.57c-9.57-.15-21.25-12.66-24.54-15.85l-8.07-6.33-1.72-22-18.65-64.29Z" style="fill: rgb(104, 225, 253);"/><path class="cls-3_superman-66" d="M278.8,361.88l22.55-12.49s7.24,5.67,9.52,1.44l3.47,41.97,6.33,38.99,15.47,29.99s5.2,8.73-4.37,8.57c-9.57-.15-21.25-12.66-24.54-15.85l-8.07-6.33-1.72-22-18.65-64.29Z"/><polygon class="cls-4_superman-66" points="237.1 121.76 286.47 119.39 254.35 151.74 237.1 121.76"/><path class="cls-5_superman-66" d="M250.57,111.07c-1.15-.11-3.04-2.66-3.8-3.51-2.43-2.9-3.8-6.55-5.81-9.7-9.7-14.9-17.3-13.41-25.58-17.22,2.74.46,5.48.85,8.19,1.47,10.07,2.27,15.51,7.99,23.14,13.5.86,1.16,1.54,2.44,2.01,3.8,1.09,2.63,2.17,5.28,3.24,7.93.56,1.37.9,3.96-1.39,3.74Z"/></g></svg>