<svg version="1.1" id="Layer_1" xmlns="http://www.w3.org/2000/svg" xmlns:xlink="http://www.w3.org/1999/xlink" x="0px" y="0px" viewBox="0 0 500 500" style="width: 164px;" xml:space="preserve" data-imageid="rocket-boy-26" imageName="Rocket Boy" class="illustrations_image">
  <style type="text/css">
    .st0_rocket-boy-26{fill:#231F20;}
    .st1_rocket-boy-26{fill:#FFFFFF;}
    .st2_rocket-boy-26{fill:#D1D3D4;}
    .st3_rocket-boy-26{fill:#6b72fd;}
  </style>
	<g id="Left_Foot_rocket-boy-26">
    <polygon class="st0_rocket-boy-26" points="297.1,210.8 388.7,242.9 340.6,255.2 284.3,227.4  "/>
		<path class="st0_rocket-boy-26" d="M340.6,255.8c-0.1,0-0.2,0-0.3-0.1L284,227.9c-0.3-0.1-0.4-0.5-0.3-0.8c0,0,0-0.1,0.1-0.1l12.9-16.6
      c0.2-0.2,0.4-0.3,0.7-0.2l91.6,32.1c0.3,0.1,0.4,0.3,0.4,0.6c0,0.3-0.2,0.5-0.5,0.6l-48.1,12.3
      C340.7,255.8,340.7,255.8,340.6,255.8z M285.2,227.2l55.5,27.4l45.9-11.8l-89.2-31.3L285.2,227.2z"/>
  </g>
	<g id="Stars_and_Planet_rocket-boy-26">
    <circle class="st1_rocket-boy-26" cx="103.6" cy="153.6" r="27.6"/>
		<path class="st2_rocket-boy-26" d="M103.6,181.9c-15.6,0-28.3-12.7-28.3-28.3c0-15.6,12.7-28.3,28.3-28.3c15.6,0,28.3,12.7,28.3,28.3
      C131.9,169.2,119.2,181.9,103.6,181.9z M103.6,126.7c-14.9,0-26.9,12.1-26.9,26.9s12.1,26.9,26.9,26.9s26.9-12.1,26.9-26.9
      C130.5,138.7,118.4,126.7,103.6,126.7z"/>
		<circle class="st1_rocket-boy-26" cx="110.7" cy="266.5" r="6.5"/>
		<path class="st2_rocket-boy-26" d="M110.7,273.6c-4,0-7.2-3.2-7.2-7.2c0-4,3.2-7.2,7.2-7.2s7.2,3.2,7.2,7.2l0,0
      C117.8,270.4,114.6,273.6,110.7,273.6z M110.7,260.7c-3.2,0-5.8,2.6-5.8,5.8c0,3.2,2.6,5.8,5.8,5.8c3.2,0,5.8-2.6,5.8-5.8
      C116.4,263.3,113.8,260.7,110.7,260.7z"/>
		<circle class="st1_rocket-boy-26" cx="353.9" cy="187.1" r="3.2"/>
		<path class="st2_rocket-boy-26" d="M353.9,191c-2.2,0-3.9-1.8-3.9-3.9c0-2.2,1.8-3.9,3.9-3.9c2.2,0,3.9,1.8,3.9,3.9c0,0,0,0,0,0
      C357.8,189.2,356,191,353.9,191z M353.9,184.6c-1.4,0-2.5,1.1-2.5,2.5s1.1,2.5,2.5,2.5s2.5-1.1,2.5-2.5l0,0
      C356.4,185.7,355.3,184.5,353.9,184.6C353.9,184.5,353.9,184.5,353.9,184.6L353.9,184.6z"/>
		<circle class="st2_rocket-boy-26" cx="399.6" cy="173.1" r="6.5"/>
		<circle class="st1_rocket-boy-26" cx="410.4" cy="376.5" r="36.4"/>
		<path class="st2_rocket-boy-26" d="M410.4,413.5c-20.5,0-37.1-16.6-37.1-37s16.6-37.1,37-37.1c16.7,0,31.3,11.1,35.7,27.2l0,0
      c5.4,19.7-6.2,40.1-25.9,45.6C417,413.1,413.7,413.5,410.4,413.5L410.4,413.5z M410.4,340.8c-19.7,0-35.7,16-35.7,35.7
      c0,19.7,16,35.7,35.7,35.7c19.7,0,35.7-16,35.7-35.7c0-3.2-0.4-6.4-1.3-9.5l0,0C440.4,351.5,426.4,340.8,410.4,340.8L410.4,340.8z"/>
		<path class="st2_rocket-boy-26" d="M366.6,396.4c-6.5,0-12.4-0.9-13.3-4.2c-1.5-5.4,12.1-12.4,20.4-16.1c0.4-0.2,0.8,0,0.9,0.4
      c0.2,0.4,0,0.8-0.4,0.9c-15.5,6.9-20.3,12-19.6,14.4s7.4,4.4,24.2,2.4c23.2-3.1,46-9.4,67.5-18.6c15.5-6.9,20.3-12,19.6-14.4
      s-7.4-4.4-24.2-2.4c-0.4,0-0.7-0.2-0.8-0.6c0,0,0,0,0,0c0-0.4,0.2-0.7,0.6-0.8c9-1.1,24.3-2,25.8,3.4s-12.1,12.4-20.4,16.1
      c-21.7,9.3-44.6,15.5-67.9,18.7C374.9,396,370.7,396.3,366.6,396.4z"/>
		<path class="st2_rocket-boy-26" d="M336.5,366.9c-0.4,0-0.7-0.3-0.7-0.7v0V358c0-0.4,0.3-0.7,0.7-0.7c0.4,0,0.7,0.3,0.7,0.7v8.2
      C337.2,366.6,336.9,366.9,336.5,366.9z"/>
		<path class="st2_rocket-boy-26" d="M340.6,362.8h-8.2c-0.4,0-0.7-0.3-0.7-0.7c0-0.4,0.3-0.7,0.7-0.7h8.2c0.4,0,0.7,0.3,0.7,0.7
      S341,362.8,340.6,362.8C340.6,362.8,340.6,362.8,340.6,362.8z"/>
		<path class="st2_rocket-boy-26" d="M431.9,199.9c-0.4,0-0.7-0.3-0.7-0.7c0,0,0,0,0,0V191c0-0.4,0.3-0.7,0.7-0.7c0.4,0,0.7,0.3,0.7,0.7
      c0,0,0,0,0,0v8.2C432.6,199.6,432.2,199.9,431.9,199.9z"/>
		<path class="st2_rocket-boy-26" d="M436,195.8h-8.2c-0.4,0-0.7-0.3-0.7-0.7s0.3-0.7,0.7-0.7c0,0,0,0,0,0h8.2c0.4,0,0.7,0.3,0.7,0.7
      C436.7,195.5,436.4,195.8,436,195.8z"/>
		<path class="st2_rocket-boy-26" d="M84.2,380.7c-0.4,0-0.7-0.3-0.7-0.7l0,0v-8.2c0-0.4,0.3-0.7,0.7-0.7c0.4,0,0.7,0.3,0.7,0.7v8.3
      C84.9,380.4,84.6,380.7,84.2,380.7z"/>
		<path class="st2_rocket-boy-26" d="M88.3,376.5h-8.2c-0.4,0-0.7-0.3-0.7-0.7c0-0.4,0.3-0.7,0.7-0.7h8.2c0.4,0,0.7,0.3,0.7,0.7
      C89,376.2,88.7,376.5,88.3,376.5C88.3,376.5,88.3,376.5,88.3,376.5z"/>
		<path class="st2_rocket-boy-26" d="M167.3,204c-0.4,0-0.7-0.3-0.7-0.7v-8.2c0-0.4,0.3-0.7,0.7-0.7c0.4,0,0.7,0.3,0.7,0.7v8.2
      C168,203.7,167.7,204,167.3,204z"/>
		<path class="st2_rocket-boy-26" d="M171.4,199.9h-8.2c-0.4,0-0.7-0.3-0.7-0.7c0-0.4,0.3-0.7,0.7-0.7c0,0,0,0,0,0h8.2c0.4,0,0.7,0.3,0.7,0.7
      C172.1,199.6,171.8,199.9,171.4,199.9C171.4,199.9,171.4,199.9,171.4,199.9z"/>
  </g>
	<g id="Rocket_rocket-boy-26">
    <path class="st2_rocket-boy-26" d="M189.9,317.5c0,0-48.6,14.7-72.7,0c0,0,18.5,23.1,43.6,20.5S189.9,317.5,189.9,317.5z"/>
		<path class="st2_rocket-boy-26" d="M206.8,304.8c0,0-37,35.8-79,26.4c-58.3-13-103.3-82.4-64.2-169.4c0,0-40.6,59-19.6,124.7
      c28.8,90,98.3,86.3,169.1,67.9"/>
		<path class="st0_rocket-boy-26" d="M182.9,318c0,0-1.1,7.8,5.2,23.5s12.4,20.6,12.4,20.6l22.2-2.7l-21.8-54.6L182.9,318z"/>
		<path class="st0_rocket-boy-26" d="M200.5,362.7c-0.1,0-0.3,0-0.4-0.1c-0.3-0.2-6.4-5.2-12.6-20.8s-5.2-23.5-5.2-23.8c0-0.2,0.1-0.3,0.2-0.4
      l18-13.3c0.2-0.1,0.4-0.2,0.5-0.1c0.2,0.1,0.3,0.2,0.4,0.4l21.8,54.6c0.1,0.3,0,0.7-0.3,0.8c-0.1,0-0.1,0-0.2,0L200.5,362.7
      L200.5,362.7z M183.5,318.4c-0.1,1.5-0.3,9.1,5.1,22.9s10.9,19.2,12,20.2l21.1-2.6l-21.2-53.1L183.5,318.4z"/>
		<path class="st1_rocket-boy-26" d="M293.4,354.4c0,0-6.2,17.8-26,34.5s-69.6,26.5-69.6,26.5l27.3-57.1L293.4,354.4z"/>
		<path class="st0_rocket-boy-26" d="M197.8,416.2c-0.2,0-0.4-0.1-0.6-0.3c-0.2-0.2-0.2-0.5-0.1-0.7l27.3-57.1c0.1-0.2,0.3-0.4,0.6-0.4l68.3-4
      c0.2,0,0.5,0.1,0.6,0.3c0.1,0.2,0.2,0.4,0.1,0.6c-0.1,0.2-6.5,18.2-26.2,34.8s-69.5,26.6-70,26.7L197.8,416.2z M225.6,359.1
      L199,414.5c8.2-1.7,50.4-11.2,68-26.1c16.8-14.2,23.8-29.3,25.4-33.2L225.6,359.1z"/>
		<path class="st1_rocket-boy-26" d="M255.6,259.6c0,0-16.7-5.9-42.6-4.4s-68.8,25.9-68.8,25.9l59.1,22.6L255.6,259.6z"/>
		<path class="st0_rocket-boy-26" d="M203.3,304.5c-0.1,0-0.2,0-0.2,0l-59.1-22.6c-0.3-0.1-0.4-0.3-0.4-0.6c0-0.3,0.1-0.5,0.4-0.7
      c0.4-0.2,43.4-24.5,69.1-26s42.7,4.4,42.9,4.5c0.4,0.1,0.6,0.5,0.4,0.9c0,0.1-0.1,0.2-0.2,0.3l-52.3,44.1
      C203.7,304.4,203.5,304.5,203.3,304.5z M145.8,281l57.4,22l51-43.1c-4.2-1.3-19.6-5.3-41.1-4C190.2,257.2,153.2,277,145.8,281z"/>
		<path class="st1_rocket-boy-26" d="M189.9,299.3c21.7-21.3,56.8-43.2,98.9-60c63.8-25.4,111-3.5,126.6,5.8c3.5,2.1,5.1,6.2,4,10.1
      c-5,17.5-24.1,65.9-87.9,91.3c-42.1,16.8-82.6,25-113,24.5c0,0-9.8-8.7-19.8-33.6S189.9,299.3,189.9,299.3z"/>
		<path class="st0_rocket-boy-26" d="M221.1,371.6h-2.6c-0.2,0-0.3-0.1-0.4-0.2c-0.4-0.4-10.1-9.1-20-33.9s-8.9-37.8-8.9-38.3
      c0-0.2,0.1-0.3,0.2-0.4c22.6-22.1,58.7-44,99.1-60.2c63.3-25.2,110.1-4.4,127.2,5.8c3.8,2.2,5.6,6.7,4.4,10.9
      c-5.5,19.2-25,66.5-88.3,91.8C292.5,362.8,252.3,371.6,221.1,371.6z M218.8,370.2c31.3,0.4,72.4-8.5,112.5-24.5
      c62.7-25,82.1-71.9,87.5-90.8c1-3.6-0.5-7.4-3.7-9.3c-17-10.1-63.3-30.7-126-5.7c-40.1,16-76,37.7-98.5,59.7
      c-0.1,1.9-0.2,14.8,8.8,37.5S217.4,368.9,218.8,370.2z"/>
		<path class="st1_rocket-boy-26" d="M419.4,255.1c-3.2,11.1-12.1,34.7-34.5,57c0,0-13.6-9.3-25.4-38.9s-8.4-45.7-8.4-45.7
      c31.6,0.7,54.3,11.7,64.3,17.6C418.9,247.1,420.5,251.2,419.4,255.1z"/>
		<path class="st0_rocket-boy-26" d="M384.9,312.8c-0.1,0-0.3,0-0.4-0.1c-0.6-0.4-13.9-9.8-25.7-39.2s-8.5-45.5-8.4-46.1c0.1-0.3,0.4-0.5,0.7-0.6
      l0,0c31.4,0.7,54,11.4,64.6,17.7c3.8,2.2,5.6,6.7,4.4,10.9l0,0c-3.4,11.9-12.4,35.2-34.7,57.3C385.2,312.7,385.1,312.8,384.9,312.8
      z M351.7,228.1c-0.5,3.1-2,18.8,8.4,44.8s22.2,36.3,24.7,38.3c21.8-21.8,30.6-44.5,33.9-56.2l0,0c1-3.6-0.5-7.4-3.7-9.3
      C404.6,239.4,382.5,229,351.7,228.1z"/>
		<path class="st1_rocket-boy-26" d="M199.6,296.3c-0.4,0-0.7-0.3-0.7-0.7c0-0.2,0.1-0.4,0.2-0.5c15.7-12.9,32.3-24.7,49.4-35.6
      c0.3-0.2,0.8-0.1,1,0.2c0.2,0.3,0.1,0.8-0.2,1l0,0c-17.1,10.8-33.6,22.7-49.3,35.5C199.9,296.2,199.8,296.3,199.6,296.3z"/>
		<path class="st0_rocket-boy-26" d="M253.3,369c-0.2,0-0.4-0.1-0.5-0.2c-0.2-0.2-19.1-18.2-28.5-41.8s-8.1-49.7-8.1-49.9c0-0.4,0.4-0.7,0.7-0.7
      c0,0,0,0,0,0c0.4,0,0.7,0.4,0.7,0.7c0,0.3-1.3,26.1,8,49.3s28,41.1,28.2,41.3c0.3,0.3,0.3,0.7,0,1c0,0,0,0,0,0
      C253.7,368.9,253.5,369,253.3,369z"/>
		<path class="st0_rocket-boy-26" d="M413.5,243.2c0,0,26.9-7,28.5-3s-22.8,17.4-22.8,17.4"/>
		<path class="st0_rocket-boy-26" d="M419.2,258.3c-0.2,0-0.4-0.1-0.5-0.3c-0.2-0.3,0-0.7,0.2-0.8c11.5-6.3,23.3-14.5,22.5-16.7s-15.1,0.1-27.8,3.4
      c-0.3,0.1-0.7-0.1-0.8-0.4c-0.1-0.3,0.1-0.7,0.5-0.8c6.4-1.7,27.6-6.8,29.2-2.6s-17.2,15-23,18.2
      C419.4,258.3,419.3,258.3,419.2,258.3z"/>
		<path class="st1_rocket-boy-26" d="M415.8,260.2c-3.7-4.8-6-10.5-6.6-16.5c-0.1-2,1.4-3.7,3.3-3.9l0,0c1.6-0.4,3.2,0.6,3.6,2.2c0,0.1,0,0.1,0,0.2
      c0.5,5.2,2.5,10.1,5.7,14.2c0.9,1.4,0.6,3.2-0.8,4.2c-0.1,0-0.1,0.1-0.2,0.1l0,0C419.3,262,417.1,261.7,415.8,260.2z"/>
		<path class="st0_rocket-boy-26" d="M418.6,262.2c-1.3,0-2.5-0.6-3.3-1.6c-3.7-4.9-6.1-10.7-6.7-16.8c-0.1-2.3,1.6-4.4,3.9-4.7
      c1.1-0.2,2.3,0.1,3.2,0.8c0.7,0.5,1.2,1.4,1.3,2.3c0.5,5,2.4,9.8,5.5,13.9c0.5,0.7,0.8,1.6,0.6,2.5c-0.2,1.1-0.8,2.1-1.8,2.8
      C420.5,261.9,419.6,262.2,418.6,262.2z M413.1,240.5h-0.5c-1.6,0.2-2.7,1.5-2.7,3.1c0.6,5.9,2.8,11.5,6.4,16.1l0,0
      c1,1.2,2.8,1.4,4.1,0.4c0.6-0.4,1.1-1.1,1.2-1.8c0.1-0.5,0-1-0.4-1.5c-3.2-4.2-5.3-9.3-5.8-14.6c-0.1-0.5-0.3-1-0.7-1.3
      C414.3,240.7,413.7,240.5,413.1,240.5L413.1,240.5z"/>
		<path class="st2_rocket-boy-26" d="M258.9,357.1c-0.4,0-0.7-0.4-0.7-0.7c0-0.3,0.3-0.6,0.6-0.7c0.6-0.1,63.1-7.6,112.8-47.8
      c0.3-0.2,0.8-0.2,1,0.1c0,0,0,0,0,0c0.2,0.3,0.2,0.7-0.1,1c0,0,0,0,0,0C322.5,349.5,259.6,357.1,258.9,357.1L258.9,357.1z"/>
		<path class="st2_rocket-boy-26" d="M58.2,299.1c-2.1-4.2-22.6-39.5-25.8-62.1c0,0-0.4,44,18,66.7S58.2,299.1,58.2,299.1z"/>
  </g>
	<g id="Character_rocket-boy-26">
    <path class="st3_rocket-boy-26 targetColor" d="M307.4,142.8c0,0-10.6,48.1-10.2,68c0,1,3.1,3.4,3.2,4.3c1.5,17.8-55.8,2.8-55.8,2.8s-2.1-37.7,2.1-51.2
      s8.8-16.4,8.8-16.4s38.3-15.1,45.1-12.9S307.4,142.8,307.4,142.8z" style="fill: #6b72fd;"/>
		<polygon class="st3_rocket-boy-26 targetColor" points="286.8,163.3 359.7,125.1 353.9,106.3 275.9,145.9" style="fill: #6b72fd;"/>
		<path class="st1_rocket-boy-26" d="M287.9,134.1c1.2-0.5,2.2-1.5,2.8-2.7c2.1-3.7,3.7-7.7,3.6-12c-0.3-12.9-10.8-23.2-23.7-23.4l5,4
      c-8.6-0.3-16.8,3.6-21.9,10.6c1.7-0.5,3.5-0.4,5.1,0.2c-2.5,0.7-5,1.5-7.5,2.4c-0.8,0.1-1.3,0.9-1.2,1.7c0,0.1,0.1,0.3,0.1,0.4
      c1.8,8.3,8,16,16.4,17.8c1.4,0.3,2.9,0.4,4.3,0.6c3.2,0.4,6.3,1.1,9.5,1.2c2,0.1,4,0,6-0.4C286.9,134.4,287.4,134.3,287.9,134.1z"/>
		<path class="st0_rocket-boy-26" d="M281.9,135.7c-0.5,0-1,0-1.6,0c-2.1-0.1-4.2-0.4-6.2-0.8c-1.1-0.2-2.2-0.3-3.3-0.5l-1-0.1
      c-1.1-0.1-2.2-0.3-3.3-0.5c-8.1-1.7-14.9-9.1-16.9-18.3c-0.2-0.6-0.1-1.3,0.2-1.9c0.3-0.4,0.8-0.7,1.3-0.9c1.6-0.7,3.3-1.2,5-1.8
      c-0.8,0-1.5,0.1-2.2,0.3c-0.3,0.1-0.5,0-0.7-0.2c-0.2-0.2-0.2-0.5,0-0.8c4.9-6.6,12.5-10.6,20.6-10.9l-3.5-2.9
      c-0.2-0.2-0.3-0.5-0.2-0.7c0.1-0.2,0.3-0.4,0.6-0.4c13.3,0.1,24,10.7,24.3,24c0.1,3.9-1.1,7.9-3.7,12.3c-0.6,1.4-1.7,2.4-3.1,3l0,0
      c-0.5,0.2-1.1,0.4-1.6,0.5C285,135.5,283.5,135.7,281.9,135.7z M255.8,109.7c1.1,0,2.1,0.2,3.1,0.6c0.3,0.1,0.4,0.4,0.4,0.6
      c0,0.3-0.2,0.5-0.5,0.6c-2.5,0.7-5,1.5-7.4,2.4c-0.3,0.1-0.5,0.2-0.7,0.4c-0.1,0.3-0.1,0.6,0,0.9c1.9,8.7,8.2,15.7,15.9,17.3
      c1,0.2,2.1,0.4,3.2,0.5l1,0.1c1.1,0.1,2.2,0.3,3.4,0.5c2,0.3,4.1,0.6,6.1,0.8c2,0.1,3.9,0,5.8-0.4c0.5-0.1,1-0.2,1.4-0.4l0,0
      c1.1-0.5,2-1.3,2.5-2.5c2.5-4.2,3.6-8,3.5-11.6c-0.1-5-1.9-9.9-5-13.8c-4-5-9.8-8.1-16.2-8.8l3.5,2.8c0.2,0.2,0.3,0.5,0.2,0.7
      c-0.1,0.3-0.3,0.4-0.6,0.4c-7.8-0.3-15.3,3-20.4,9C255.4,109.7,255.6,109.7,255.8,109.7L255.8,109.7z M287.9,134.1L287.9,134.1z"/>
		<path class="st0_rocket-boy-26" d="M270.8,146.7c0,0,0.2,14.6,7.1,15.1s7.1-13,7.1-13"/>
		<path class="st0_rocket-boy-26" d="M278.3,162.4h-0.4c-7.4-0.5-7.7-15.1-7.7-15.7c0-0.3,0.2-0.7,0.5-0.7s0.7,0.2,0.7,0.5c0,0.1,0,0.1,0,0.2
      c0,0.1,0.3,14.1,6.6,14.5c1.1,0.1,2.2-0.3,3-1.1c3.3-3,3.4-11.2,3.4-11.3c0-0.3,0.3-0.6,0.6-0.6c0.3,0,0.6,0.3,0.6,0.6c0,0,0,0,0,0
      c0,0.4-0.1,8.8-3.8,12.2C280.9,161.9,279.6,162.4,278.3,162.4z"/>
		<path class="st1_rocket-boy-26" d="M284.4,139.6l0.6,9.2c0,0-0.6,5.2-6.3,4c-3.4-0.8-6.3-3-7.9-6.1c0,0-1.4-22.1-1.9-28c4.1-0.5,8.1-1.9,11.6-4
      c0.5-0.4,1.1-0.8,1.7-1c1.1-0.2,1,0.5,1.5,1.4c0.9,1.8,2.4,3.2,4.2,4c0.2,0.1,0.4,0.2,0.6,0.4c0.1,0.2,0.1,0.3,0.1,0.5
      c0.6,5.3,1.7,10.5,0.9,15.8C289,140.4,284.4,139.6,284.4,139.6z"/>
		<path class="st0_rocket-boy-26" d="M280.3,153.6c-0.6,0-1.2-0.1-1.8-0.2c-3.6-0.8-6.7-3.2-8.3-6.5c0-0.1,0-0.1,0-0.2c0-0.2-1.4-22.2-1.9-28
      c0-0.2,0-0.3,0.1-0.5c0.1-0.1,0.3-0.2,0.4-0.2c4-0.5,7.9-1.8,11.4-3.9c0.2-0.1,0.3-0.2,0.5-0.3c0.4-0.3,0.9-0.6,1.5-0.8
      c0.8-0.2,1.7,0.3,1.9,1.1c0,0,0,0.1,0,0.1c0.1,0.2,0.2,0.4,0.2,0.6c0.9,1.6,2.2,3,3.9,3.7c0.3,0.1,0.7,0.4,0.9,0.7
      c0.1,0.2,0.2,0.5,0.2,0.8c0.1,1.1,0.3,2.3,0.4,3.4c0.5,4.1,1.1,8.3,0.5,12.6c-0.1,1.3-0.8,2.5-1.8,3.3c-1,0.7-2.2,1-3.4,1
      l0.6,8.5c-0.2,1.6-1,3-2.2,3.9C282.5,153.3,281.4,153.7,280.3,153.6z M271.4,146.5c1.5,2.9,4.2,5,7.4,5.7c1.3,0.4,2.7,0.2,3.9-0.5
      c0.9-0.7,1.5-1.8,1.7-2.9l-0.6-9.1c0-0.2,0.1-0.4,0.2-0.5c0.1-0.1,0.3-0.2,0.5-0.2c1.1,0.2,2.2-0.1,3.2-0.7
      c0.8-0.6,1.2-1.5,1.3-2.4c0.6-4.1,0-8.2-0.5-12.2c-0.1-1.1-0.3-2.3-0.4-3.4c0-0.1,0-0.2,0-0.2c-0.1-0.1-0.2-0.1-0.3-0.2
      c-1.9-0.9-3.5-2.4-4.5-4.3c-0.1-0.2-0.2-0.5-0.3-0.7c-0.1-0.1-0.1-0.3-0.2-0.4l0,0c-0.1,0-0.2,0-0.4,0c-0.3,0.1-0.6,0.3-0.9,0.5
      c-0.2,0.1-0.4,0.3-0.6,0.4c-3.5,2-7.3,3.4-11.2,4C270.1,125.6,271.3,144.8,271.4,146.5L271.4,146.5z"/>
		<path class="st0_rocket-boy-26" d="M284.6,144.1c-2.3,0.2-4.5-0.5-6.3-1.9c-1.5-1.2-2.3-3-2.4-4.9c2.6,1.4,5.5,2.2,8.4,2.3L284.6,144.1z"/>
		<path class="st0_rocket-boy-26" d="M284,144.8c-2.2,0.1-4.4-0.7-6.1-2.1c-1.6-1.3-2.6-3.3-2.6-5.4c0-0.3,0.3-0.6,0.7-0.6c0.1,0,0.2,0,0.3,0.1
      c2.5,1.4,5.3,2.1,8.1,2.2c0.3,0,0.6,0.2,0.6,0.6l0.2,4.5c0,0.3-0.2,0.6-0.5,0.6C284.5,144.7,284.2,144.8,284,144.8z M276.7,138.4
      c0.3,1.3,1,2.5,2.1,3.4c1.5,1.2,3.3,1.9,5.2,1.8l-0.2-3.3C281.3,140.1,278.9,139.5,276.7,138.4L276.7,138.4z"/>
		<path class="st1_rocket-boy-26" d="M283,123.2c0,0,3.2,4.2,2.6,5.1c-0.7,0.8-2.7,0.4-2.7,0.4"/>
		<path class="st0_rocket-boy-26" d="M283.9,129.4c-0.4,0-0.8,0-1.1-0.1c-0.3-0.1-0.6-0.4-0.5-0.7c0,0,0,0,0,0c0.1-0.3,0.4-0.6,0.7-0.5c0,0,0,0,0,0
      c0.7,0.1,1.8,0.1,2.1-0.2c-0.6-1.6-1.5-3-2.6-4.3c-0.2-0.3-0.2-0.6,0.1-0.9c0,0,0,0,0,0c0.3-0.2,0.7-0.2,0.9,0.1c0,0,0,0,0,0
      c2.4,3.1,3.2,5,2.6,5.8C285.5,129.2,284.7,129.5,283.9,129.4z"/>
		<path class="st0_rocket-boy-26" d="M282.6,134.2h-0.2c-3.1-0.1-5.4-3.1-5.5-3.3c-0.2-0.3-0.2-0.7,0.1-0.9c0,0,0,0,0,0c0.3-0.2,0.6-0.2,0.9,0.1
      c0,0,0,0,0,0c0,0,2.1,2.7,4.6,2.8c1.3,0,2.6-0.6,3.4-1.6c0.2-0.3,0.6-0.3,0.9-0.1c0.3,0.2,0.3,0.6,0.1,0.9c0,0,0,0,0,0.1
      C285.7,133.4,284.2,134.1,282.6,134.2z"/>
		<path class="st1_rocket-boy-26" d="M287.1,264.4L276.9,306c0,0,51-17.1,52.8-22.6s-26.4,0.8-26.4,0.8l2-11.9L287.1,264.4z"/>
		<path class="st0_rocket-boy-26" d="M276.9,306.7c-0.2,0-0.3-0.1-0.5-0.2c-0.2-0.2-0.3-0.4-0.2-0.7l10.2-41.6c0.1-0.2,0.2-0.4,0.4-0.5
      c0.2-0.1,0.4-0.1,0.6,0l18.2,7.9c0.3,0.1,0.5,0.4,0.4,0.8l-1.8,10.9c5.6-1.2,23-4.8,25.8-1.6c0.5,0.5,0.6,1.3,0.4,1.9
      c-1.9,5.7-48,21.3-53.2,23.1C277.1,306.7,277,306.7,276.9,306.7z M287.6,265.3l-9.7,39.6c19.6-6.6,49.9-18,51.2-21.8
      c0.1-0.3,0-0.5-0.1-0.6c-1.9-2.1-16.6,0.3-25.5,2.3c-0.2,0.1-0.5,0-0.6-0.2c-0.2-0.2-0.2-0.4-0.2-0.6l1.9-11.4L287.6,265.3z"/>
		<path class="st0_rocket-boy-26" d="M244.6,217.8c0,0-7.1,29.4,6.9,33.4s37.3-12,37.3-12l-7.6,27.3c0,0-5.1,12.3,2.3,11.8
      c6.6-8.6,15.7-10.9,21.9-6c9.7-10.8,26.8-44.7,15.8-56.3S244.6,217.8,244.6,217.8z"/>
		<path class="st0_rocket-boy-26" d="M283,279c-1.3,0.1-2.5-0.5-3.2-1.5c-2.4-3.3,0.7-10.9,0.9-11.2l7.1-25.7c-5.3,3.4-24.2,14.6-36.5,11.1
      c-14.4-4.1-7.6-32.9-7.3-34.1c0.1-0.2,0.2-0.4,0.5-0.5c2.7-0.6,66-13.4,77.2-1.7s-5.6,45.9-15.8,57.2
      c-0.2,0.2-0.6,0.3-0.8,0.1c-2.4-1.9-5.4-2.7-8.5-2.3c-4.5,0.6-8.9,3.5-12.6,8.2c-0.1,0.1-0.3,0.2-0.4,0.2L283,279z M288.8,238.6c0.1,0,0.3,0,0.4,0.1
      c0.2,0.1,0.3,0.4,0.2,0.7l-7.6,27.3c-0.9,2.1-2.6,7.8-1,10.1c0.6,0.7,1.5,1.1,2.4,1c3.8-4.8,8.5-7.8,13.2-8.4
      c3.1-0.4,6.3,0.3,8.9,2.2c9.7-11.1,25.8-44.1,15.4-55.1c-10.2-10.8-70.2,0.9-75.6,1.9c-0.8,3.4-5.9,28.7,6.5,32.3
      c13.5,3.9,36.6-11.7,36.8-11.9C288.5,238.7,288.6,238.6,288.8,238.6L288.8,238.6z"/>
		<path class="st0_rocket-boy-26" d="M276.9,306c0,0,5.6,5.5,21.5,0s36.1-20.2,31.2-22.6S282.3,298.3,276.9,306z"/>
		<path class="st0_rocket-boy-26" d="M285.8,309.1c-6.5,0-9.1-2.5-9.3-2.6c-0.2-0.2-0.3-0.5-0.1-0.8c5.3-7.5,47.9-25.7,53.6-22.8
      c0.7,0.3,1.1,1.1,1.1,1.8c-0.3,4.9-18.5,17.1-32.4,21.9C294.6,308.1,290.2,309,285.8,309.1z M277.8,305.9c1.6,1,7.6,4,20.5-0.5
      c14-4.8,31.3-16.9,31.6-20.9c0-0.3-0.1-0.6-0.4-0.6C325.2,281.8,284.5,298.1,277.8,305.9L277.8,305.9z M276.9,306L276.9,306z"/>
		<path class="st1_rocket-boy-26" d="M305.7,281.6c0,0-7.6,2.9-10.7,4.9l0.6-6.4c0,0,8.3-4,10.1-3.8V281.6z"/>
		<path class="st0_rocket-boy-26" d="M295,287.2c-0.1,0-0.3,0-0.4-0.1c-0.2-0.1-0.4-0.4-0.3-0.7l0.6-6.4c0-0.2,0.2-0.5,0.4-0.6
      c1.4-0.7,8.6-4.1,10.5-3.9c0.4,0,0.6,0.3,0.6,0.7v5.3c0,0.3-0.2,0.5-0.5,0.6c-0.1,0-7.5,2.9-10.5,4.9
      C295.3,287.2,295.1,287.2,295,287.2z M296.2,280.5l-0.4,4.7c3-1.5,6-2.9,9.2-4.1v-4C302,278,299,279.1,296.2,280.5L296.2,280.5z
       M305.7,281.5L305.7,281.5z"/>
		<path class="st3_rocket-boy-26 targetColor" d="M261.7,147.9c0,0-50.6,20.5-54.8,26.3s-11.6,40.7-11.6,40.7l15.3-2.2c0,0,13.8-21.7,18.1-26.3s28.5-11,28.5-11
      L261.7,147.9z" style="fill: #6b72fd;"/>
		<path class="st1_rocket-boy-26" d="M218.8,202.8l-10.3,17.6c0,0,8.7,7,6.6,8.1s-4.1,2.1-4.1,2.1s-0.2,5.8-2.8,6.4s-17-0.6-16.3-5.5
      c2.2-17,5-36.3,4.8-34.1L218.8,202.8z"/>
		<path class="st0_rocket-boy-26" d="M206.2,237.9c-3.9,0-10.8-1-13.6-3.4c-1-0.7-1.5-1.9-1.3-3.1c1-7.2,2.1-15.7,3.2-23.2
      c0.9-6.6,1.3-9.5,1.7-10.8c0,0,0-0.1,0-0.1c0,0,0,0.1,0,0.1c0.2-1,0.4-0.9,0.8-0.9c0.2,0,0.4,0.1,0.5,0.3l21.6,5.3
      c0.2,0.1,0.4,0.2,0.5,0.4c0.1,0.2,0.1,0.4,0,0.6l-10,17.1c2.1,1.7,6.9,5.9,6.7,7.9c0,0.4-0.3,0.8-0.7,1c-1.6,0.9-3.1,1.6-3.8,1.9
      c-0.1,1.5-0.7,6-3.2,6.6C207.7,237.8,206.9,237.9,206.2,237.9z M197.3,198.3c-0.6,3.7-2.8,18.8-4.7,33.4c-0.1,0.7,0.3,1.4,0.9,1.8
      c3.1,2.7,12.7,3.4,14.6,2.9c1.6-0.4,2.2-4.4,2.2-5.8c0-0.3,0.2-0.5,0.4-0.6c0,0,2-0.9,4.1-2c0.1-0.7-3-4-6.7-7
      c-0.3-0.2-0.3-0.6-0.2-0.9l9.8-16.8L197.3,198.3z"/>
		<path class="st1_rocket-boy-26" d="M355.1,130.5c0-0.7-6.9-24.2-6.9-24.2l14.9-5.2c0,0-0.2-5.5,3-7.6s7.6,0,7.6,0s13.1-11,14.7-8.7
      s-3.2,7.4-10.6,12.6c0,0,3.9,11-0.5,14.5c-2.6,2-5.7,3.3-8.9,3.6L355.1,130.5z"/>
		<path class="st0_rocket-boy-26" d="M355.1,131.2c-0.1,0-0.2,0-0.2,0c-0.3-0.1-0.4-0.3-0.5-0.6c-0.1-1-4.2-14.9-6.9-24c-0.1-0.4,0.1-0.7,0.4-0.9
      l14.5-5.1c0-1.5,0.4-5.8,3.3-7.7s6.6-0.7,7.8-0.2c2.5-2.1,11.4-9.3,14.4-8.9c0.4,0,0.8,0.3,1,0.6c2.3,3.3-5.3,9.6-10.3,13.3
      c0.7,2.3,3.3,11.4-0.9,14.8c-2.6,2.1-5.7,3.4-9,3.7L355.6,131C355.5,131.1,355.3,131.2,355.1,131.2z M355.8,130.5L355.8,130.5z
       M349,106.8c2.2,7.3,5.4,18.3,6.4,22.3l12.5-14c0.1-0.1,0.3-0.2,0.5-0.2c3.1-0.3,6.1-1.5,8.5-3.4c3.2-2.6,1.3-10.8,0.2-13.7
      c-0.1-0.3,0-0.6,0.2-0.8c8.5-6.1,11.4-10.3,10.4-11.7c-1-0.6-7.4,3.6-13.7,8.9c-0.2,0.2-0.5,0.2-0.8,0.1c0,0-4.1-1.9-6.9,0
      s-2.7,6.9-2.7,7c0,0.3-0.2,0.6-0.5,0.7L349,106.8z"/>
		<path class="st0_rocket-boy-26" d="M297.7,199.9h-0.1c-0.3-0.1-0.6-0.4-0.5-0.7c0,0,0,0,0,0c4.1-20.2,8-56.5,7.8-58.2c-0.1-0.3,0.1-0.7,0.4-0.8
      c0,0,0,0,0,0c0.3-0.1,0.7,0.1,0.8,0.5c0.4,1.3-3.7,38.6-7.8,58.8C298.3,199.6,298,199.9,297.7,199.9z"/>
		<path class="st0_rocket-boy-26" d="M233.2,183.1c-0.3,0-0.5-0.2-0.6-0.4c-0.1-0.3,0.1-0.7,0.4-0.8l28.6-9.4c0.3-0.1,0.7,0.1,0.8,0.4
      c0.1,0.3-0.1,0.7-0.4,0.8l-28.6,9.4C233.3,183.1,233.2,183.1,233.2,183.1z"/>
		<path class="st0_rocket-boy-26" d="M374,108.1c-0.1,0-0.2,0-0.4,0c-2.2-0.5-4-2-4.7-4.1c-0.4,1.7-1.2,3.5-3.3,4.1c-0.3,0.1-0.7-0.1-0.7-0.4
      c0,0,0,0,0,0c-0.1-0.3,0.1-0.7,0.4-0.8c0,0,0,0,0,0c3.1-0.8,2.6-6.3,2.6-6.3c0-0.3,0.2-0.6,0.5-0.7c0.3,0,0.6,0.2,0.7,0.5
      c0,0.1,0.9,5.9,4.7,6.4c0.3,0.1,0.5,0,0.7-0.2c1.4-1.6-0.1-8.8-1.4-13c-0.1-0.3,0.1-0.7,0.4-0.8c0,0,0,0,0,0
      c0.3-0.1,0.7,0.1,0.8,0.4c0.4,1.2,3.4,11.6,1.1,14.1C375.1,107.9,374.6,108.2,374,108.1z"/>
		<polygon class="st0_rocket-boy-26" points="273.2,121.4 266.2,124.4 266.2,126 275.7,123.2 "/>
		<path class="st0_rocket-boy-26" d="M266.2,126.6c-0.1,0-0.3,0-0.4-0.1c-0.2-0.1-0.2-0.3-0.2-0.5v-1.5c0-0.2,0.1-0.5,0.4-0.6l7.1-3
      c0.2-0.1,0.4-0.1,0.6,0.1l2.5,1.8c0.3,0.2,0.3,0.6,0.1,0.9c-0.1,0.1-0.2,0.2-0.3,0.2l-9.5,2.8C266.3,126.6,266.2,126.6,266.2,126.6
      z M266.8,124.8v0.3l7.5-2.2l-1.2-0.8L266.8,124.8z"/>
		<path class="st1_rocket-boy-26" d="M270.9,127.3c-1.1-1.3-2.8-3.7-4.8-2.8c-0.5,0.3-1,0.6-1.3,1.1c-1.5,2-1.1,4.6,0.1,6.7c1,1.8,4.2,4.4,6,1.9"/>
		<path class="st0_rocket-boy-26" d="M269.1,135.8h-0.2c-2-0.1-3.8-2-4.5-3.2c-1.5-2.6-1.6-5.4-0.1-7.4c0.4-0.6,0.9-1,1.6-1.3
      c2.3-1,4.1,1.3,5.2,2.7l0.3,0.3c0.2,0.3,0.2,0.7-0.1,0.9s-0.7,0.2-0.9-0.1l-0.3-0.3c-1.2-1.6-2.5-2.9-3.7-2.3
      c-0.4,0.2-0.8,0.5-1.1,0.9c-1.2,1.6-1.1,3.8,0.1,6c0.7,1.2,2.2,2.5,3.5,2.6c0.6,0,1.1-0.3,1.5-0.7c0.2-0.3,0.6-0.3,0.9-0.1
      c0.3,0.2,0.3,0.6,0.1,0.9c0,0,0,0,0,0C270.9,135.3,270.1,135.8,269.1,135.8z"/>

		<ellipse transform="matrix(0.9944 -0.1057 0.1057 0.9944 -11.2339 30.0201)" class="st1_rocket-boy-26" cx="277.5" cy="120.9" rx="4.3" ry="3.3"/>
		<path class="st0_rocket-boy-26" d="M277.2,124.9c-2.4,0-4.5-1.4-4.7-3.4c-0.2-2.2,1.8-4.1,4.5-4.4c1.2-0.2,2.5,0.1,3.5,0.7c1,0.6,1.7,1.5,1.8,2.7
      c0.2,2.2-1.8,4.1-4.5,4.4C277.7,124.9,277.5,124.9,277.2,124.9z M277.7,118.3c-0.2,0-0.4,0-0.5,0c-2,0.2-3.5,1.6-3.4,3
      s1.9,2.5,3.9,2.2s3.5-1.6,3.4-3l0,0c-0.1-0.7-0.6-1.4-1.2-1.7C279.3,118.4,278.5,118.2,277.7,118.3z"/>

		<ellipse transform="matrix(0.9944 -0.1057 0.1057 0.9944 -11.1408 30.9458)" class="st1_rocket-boy-26" cx="286.3" cy="120.5" rx="4.3" ry="3.3"/>
		<path class="st0_rocket-boy-26" d="M286,124.5c-2.4,0-4.5-1.4-4.7-3.4c-0.2-2.2,1.8-4.1,4.5-4.4s5.1,1.2,5.3,3.4l0,0c0.2,2.2-1.8,4.2-4.5,4.4
      C286.4,124.5,286.2,124.5,286,124.5z M286.5,117.8H286c-2,0.2-3.5,1.6-3.4,3s1.9,2.5,3.9,2.2s3.5-1.6,3.4-3S288.3,117.8,286.5,117.8L286.5,117.8z"/>
  </g>
</svg>
